<svg xmlns="http://www.w3.org/2000/svg" viewBox="0 0 512 512" width="512" height="512">
  <rect width="512" height="512" rx="96" fill="#0D0A06"/>
  <g fill="#776341" >
    <path transform="translate(48.0,358.4) scale(0.3276,-0.3276)" d="M666 625Q669 625 669.0 619.0Q669 613 666 613Q631 613 601.0 586.0Q571 559 552 508L357 1Q356 -3 346.5 -3.0Q337 -3 335 1L82 542Q65 578 47.0 595.5Q29 613 3 613Q0 613 0.0 619.0Q0 625 3 625Q16 625 24.5 624.0Q33 623 45.5 622.5Q58 622 79 622Q127 622 157.5 622.5Q188 623 208.5 624.0Q229 625 245 625Q248 625 248.0 619.0Q248 613 245 613Q203 613 188.5 592.0Q174 571 193 532L386 114L345 45L525 512Q542 557 527.0 585.0Q512 613 461 613Q458 613 458.0 619.0Q458 625 461 625Q488 625 513.0 623.5Q538 622 578 622Q606 622 623.5 623.5Q641 625 666 625Z"/>
    <path transform="translate(294.3,358.4) scale(0.3276,-0.3276)" d="M37 0Q34 0 34.0 6.0Q34 12 37 12Q72 12 89.0 17.0Q106 22 112.0 37.0Q118 52 118 81V544Q118 573 112.5 587.5Q107 602 91.0 607.5Q75 613 42 613Q39 613 39.0 619.0Q39 625 42 625H458Q468 625 468 616L470 486Q470 484 465.0 483.5Q460 483 458 486Q447 543 412.0 571.0Q377 599 320 599H279Q242 599 227.5 586.0Q213 573 213 543V85Q213 55 221.0 39.5Q229 24 253.0 18.0Q277 12 325 12Q327 12 327.0 6.0Q327 0 325 0Q291 0 252.0 1.0Q213 2 163 2Q128 2 95.0 1.0Q62 0 37 0ZM408 215Q408 256 379.5 278.0Q351 300 293 300H168V326H295Q352 326 379.5 345.5Q407 365 407 401Q407 403 413.0 403.0Q419 403 419 401Q419 368 418.5 350.0Q418 332 418 313Q418 289 419.0 265.5Q420 242 420 215Q420 212 414.0 212.0Q408 212 408 215Z"/>
  </g>
</svg>